<svg width="132" height="32" viewBox="0 0 132 32" fill="none" xmlns="http://www.w3.org/2000/svg">
<path d="M48.704 13L44.834 7.852C45.326 7.768 45.782 7.624 46.202 7.42C46.622 7.216 46.982 6.964 47.282 6.664C47.594 6.352 47.834 5.992 48.002 5.584C48.17 5.164 48.254 4.69 48.254 4.162C48.254 3.598 48.146 3.088 47.93 2.632C47.714 2.164 47.408 1.768 47.012 1.444C46.616 1.108 46.136 0.849999 45.572 0.669999C45.02 0.489999 44.396 0.399999 43.7 0.399999H38.282V13H39.704V8.104H43.304L46.958 13H48.704ZM46.814 4.216C46.814 4.624 46.73 4.99 46.562 5.314C46.406 5.638 46.184 5.914 45.896 6.142C45.608 6.358 45.266 6.526 44.87 6.646C44.474 6.766 44.042 6.826 43.574 6.826H39.704V1.714H43.592C44.612 1.714 45.404 1.936 45.968 2.38C46.532 2.812 46.814 3.424 46.814 4.216ZM52.6758 1.66V0.129999H51.0918V1.66H52.6758ZM52.5678 13V3.694H51.1818V13H52.5678ZM62.1743 10.39V10.354C62.1743 9.934 62.0843 9.58 61.9043 9.292C61.7363 9.004 61.5083 8.758 61.2203 8.554C60.9323 8.35 60.6083 8.182 60.2483 8.05C59.9003 7.918 59.5463 7.798 59.1863 7.69C58.8743 7.594 58.5743 7.498 58.2863 7.402C57.9983 7.306 57.7403 7.198 57.5123 7.078C57.2963 6.958 57.1223 6.82 56.9903 6.664C56.8583 6.496 56.7923 6.304 56.7923 6.088V6.052C56.7923 5.668 56.9543 5.35 57.2783 5.098C57.6023 4.834 58.0403 4.702 58.5923 4.702C59.0483 4.702 59.5103 4.786 59.9783 4.954C60.4583 5.11 60.9143 5.326 61.3463 5.602L61.9763 4.558C61.4963 4.246 60.9623 4 60.3743 3.82C59.7863 3.628 59.2043 3.532 58.6283 3.532C58.1723 3.532 57.7463 3.598 57.3503 3.73C56.9663 3.85 56.6303 4.03 56.3423 4.27C56.0663 4.498 55.8503 4.78 55.6943 5.116C55.5383 5.44 55.4603 5.8 55.4603 6.196V6.232C55.4603 6.664 55.5503 7.024 55.7303 7.312C55.9223 7.6 56.1623 7.84 56.4503 8.032C56.7503 8.224 57.0803 8.386 57.4403 8.518C57.8123 8.638 58.1783 8.752 58.5383 8.86C58.8383 8.944 59.1263 9.034 59.4023 9.13C59.6903 9.226 59.9423 9.34 60.1583 9.472C60.3743 9.592 60.5423 9.736 60.6623 9.904C60.7943 10.072 60.8603 10.27 60.8603 10.498V10.534C60.8603 10.99 60.6803 11.35 60.3203 11.614C59.9603 11.878 59.4983 12.01 58.9343 12.01C58.3823 12.01 57.8303 11.908 57.2783 11.704C56.7383 11.5 56.2163 11.206 55.7123 10.822L55.0103 11.812C55.5383 12.232 56.1443 12.568 56.8283 12.82C57.5123 13.06 58.1903 13.18 58.8623 13.18C59.3303 13.18 59.7623 13.12 60.1583 13C60.5663 12.868 60.9143 12.682 61.2023 12.442C61.5023 12.202 61.7363 11.914 61.9043 11.578C62.0843 11.23 62.1743 10.834 62.1743 10.39ZM66.3692 1.66V0.129999H64.7852V1.66H66.3692ZM66.2612 13V3.694H64.8752V13H66.2612ZM70.8637 7.672C70.8637 7.24 70.9297 6.844 71.0617 6.484C71.2057 6.124 71.4037 5.818 71.6557 5.566C71.9077 5.302 72.2017 5.104 72.5377 4.972C72.8857 4.828 73.2577 4.756 73.6537 4.756C74.4817 4.756 75.1177 5.008 75.5617 5.512C76.0057 6.016 76.2277 6.7 76.2277 7.564V13H77.6137V7.222C77.6137 6.67 77.5297 6.166 77.3617 5.71C77.2057 5.254 76.9717 4.864 76.6597 4.54C76.3597 4.204 75.9877 3.946 75.5437 3.766C75.1117 3.586 74.6137 3.496 74.0497 3.496C73.2457 3.496 72.5917 3.676 72.0877 4.036C71.5837 4.384 71.1757 4.81 70.8637 5.314V3.694H69.4777V13H70.8637V7.672ZM89.4255 11.38V3.694H88.0395V5.368C87.8475 5.116 87.6315 4.876 87.3915 4.648C87.1515 4.42 86.8815 4.222 86.5815 4.054C86.2935 3.886 85.9635 3.754 85.5915 3.658C85.2315 3.55 84.8355 3.496 84.4035 3.496C83.8515 3.496 83.3115 3.598 82.7835 3.802C82.2555 4.006 81.7875 4.3 81.3795 4.684C80.9715 5.056 80.6415 5.518 80.3895 6.07C80.1495 6.61 80.0295 7.222 80.0295 7.906C80.0295 8.59 80.1495 9.202 80.3895 9.742C80.6415 10.282 80.9715 10.744 81.3795 11.128C81.7875 11.5 82.2495 11.788 82.7655 11.992C83.2935 12.184 83.8395 12.28 84.4035 12.28C85.2555 12.28 85.9755 12.088 86.5635 11.704C87.1515 11.32 87.6495 10.858 88.0575 10.318V11.416C88.0575 12.508 87.7515 13.33 87.1395 13.882C86.5275 14.446 85.7055 14.728 84.6735 14.728C84.0015 14.728 83.3715 14.626 82.7835 14.422C82.1955 14.218 81.6315 13.924 81.0915 13.54L80.4615 14.62C81.0855 15.052 81.7515 15.376 82.4595 15.592C83.1675 15.808 83.9115 15.916 84.6915 15.916C85.4115 15.916 86.0595 15.82 86.6355 15.628C87.2235 15.436 87.7215 15.148 88.1295 14.764C88.5495 14.392 88.8675 13.924 89.0835 13.36C89.3115 12.796 89.4255 12.136 89.4255 11.38ZM88.0935 7.888C88.0935 8.368 87.9975 8.806 87.8055 9.202C87.6135 9.586 87.3555 9.916 87.0315 10.192C86.7195 10.468 86.3595 10.684 85.9515 10.84C85.5435 10.984 85.1175 11.056 84.6735 11.056C84.2415 11.056 83.8275 10.984 83.4315 10.84C83.0475 10.684 82.7055 10.468 82.4055 10.192C82.1175 9.904 81.8835 9.568 81.7035 9.184C81.5355 8.788 81.4515 8.35 81.4515 7.87C81.4515 7.39 81.5355 6.958 81.7035 6.574C81.8715 6.178 82.0995 5.842 82.3875 5.566C82.6875 5.29 83.0295 5.08 83.4135 4.936C83.8095 4.792 84.2295 4.72 84.6735 4.72C85.1175 4.72 85.5435 4.798 85.9515 4.954C86.3595 5.098 86.7195 5.308 87.0315 5.584C87.3555 5.86 87.6135 6.196 87.8055 6.592C87.9975 6.976 88.0935 7.408 88.0935 7.888ZM47.552 19.956V17.4H37.112V19.956H40.946V30H43.718V19.956H47.552ZM57.6939 30V24.402C57.6939 23.094 57.3519 22.074 56.6679 21.342C55.9839 20.61 54.8919 20.244 53.3919 20.244C52.5759 20.244 51.8799 20.316 51.3039 20.46C50.7279 20.604 50.1759 20.79 49.6479 21.018L50.3319 23.106C50.7759 22.938 51.1959 22.812 51.5919 22.728C51.9999 22.632 52.4679 22.584 52.9959 22.584C53.6799 22.584 54.1959 22.734 54.5439 23.034C54.8919 23.334 55.0659 23.772 55.0659 24.348V24.51C54.7179 24.39 54.3579 24.294 53.9859 24.222C53.6259 24.15 53.1999 24.114 52.7079 24.114C52.1319 24.114 51.6039 24.18 51.1239 24.312C50.6559 24.432 50.2479 24.618 49.8999 24.87C49.5639 25.122 49.2999 25.44 49.1079 25.824C48.9159 26.208 48.8199 26.664 48.8199 27.192V27.228C48.8199 27.708 48.9039 28.134 49.0719 28.506C49.2519 28.866 49.4919 29.172 49.7919 29.424C50.0919 29.676 50.4399 29.868 50.8359 30C51.2439 30.12 51.6759 30.18 52.1319 30.18C52.8039 30.18 53.3739 30.072 53.8419 29.856C54.3099 29.628 54.7119 29.328 55.0479 28.956V30H57.6939ZM55.1019 26.598C55.1019 27.102 54.9039 27.51 54.5079 27.822C54.1239 28.134 53.6079 28.29 52.9599 28.29C52.5159 28.29 52.1559 28.188 51.8799 27.984C51.6039 27.78 51.4659 27.492 51.4659 27.12V27.084C51.4659 26.652 51.6339 26.322 51.9699 26.094C52.3059 25.866 52.7679 25.752 53.3559 25.752C53.6919 25.752 54.0039 25.788 54.2919 25.86C54.5919 25.92 54.8619 26.004 55.1019 26.112V26.598ZM62.9102 30V16.86H60.1742V30H62.9102ZM74.4799 25.446V25.41C74.4799 24.726 74.3839 24.072 74.1919 23.448C74.0119 22.812 73.7239 22.254 73.3279 21.774C72.9439 21.282 72.4579 20.892 71.8699 20.604C71.2819 20.316 70.5859 20.172 69.7819 20.172C69.0739 20.172 68.4259 20.304 67.8379 20.568C67.2619 20.832 66.7639 21.192 66.3439 21.648C65.9239 22.104 65.5939 22.638 65.3539 23.25C65.1259 23.862 65.0119 24.51 65.0119 25.194V25.23C65.0119 25.974 65.1379 26.652 65.3899 27.264C65.6419 27.864 65.9899 28.386 66.4339 28.83C66.8899 29.274 67.4239 29.616 68.0359 29.856C68.6599 30.096 69.3319 30.216 70.0519 30.216C70.9279 30.216 71.6899 30.06 72.3379 29.748C72.9859 29.424 73.5379 28.98 73.9939 28.416L72.4279 27.03C72.0439 27.378 71.6719 27.63 71.3119 27.786C70.9519 27.942 70.5439 28.02 70.0879 28.02C69.4759 28.02 68.9599 27.864 68.5399 27.552C68.1319 27.228 67.8619 26.754 67.7299 26.13H74.4439C74.4559 25.998 74.4619 25.884 74.4619 25.788C74.4739 25.692 74.4799 25.578 74.4799 25.446ZM71.8159 24.42H67.6939C67.8019 23.796 68.0299 23.298 68.3779 22.926C68.7379 22.554 69.2059 22.368 69.7819 22.368C70.3579 22.368 70.8199 22.56 71.1679 22.944C71.5159 23.316 71.7319 23.808 71.8159 24.42ZM85.3569 30V23.754C85.3569 22.638 85.0689 21.762 84.4929 21.126C83.9289 20.49 83.1249 20.172 82.0809 20.172C81.7329 20.172 81.4209 20.214 81.1449 20.298C80.8689 20.382 80.6169 20.496 80.3889 20.64C80.1609 20.784 79.9509 20.952 79.7589 21.144C79.5789 21.324 79.4109 21.516 79.2549 21.72V20.352H76.5189V30H79.2549V24.618C79.2549 23.97 79.4049 23.484 79.7049 23.16C80.0169 22.824 80.4369 22.656 80.9649 22.656C81.4929 22.656 81.9009 22.824 82.1889 23.16C82.4769 23.484 82.6209 23.97 82.6209 24.618V30H85.3569ZM93.1518 29.604V27.408C92.7318 27.636 92.2818 27.75 91.8018 27.75C91.2138 27.75 90.9198 27.438 90.9198 26.814V22.692H93.1878V20.352H90.9198V17.886H88.1838V20.352H87.0318V22.692H88.1838V27.264C88.1838 27.828 88.2498 28.296 88.3818 28.668C88.5258 29.028 88.7178 29.322 88.9578 29.55C89.2098 29.778 89.5038 29.934 89.8398 30.018C90.1878 30.114 90.5718 30.162 90.9918 30.162C91.4478 30.162 91.8498 30.108 92.1978 30C92.5458 29.904 92.8638 29.772 93.1518 29.604Z" fill="#1B1A21"/>
<rect x="0.5" width="32" height="32" rx="10" fill="url(#paint0_linear_57_7278)"/>
<circle cx="16.5" cy="16" r="8" stroke="white" stroke-width="2"/>
<defs>
<linearGradient id="paint0_linear_57_7278" x1="10.9727" y1="5.58767e-07" x2="37.7552" y2="5.26436" gradientUnits="userSpaceOnUse">
<stop stop-color="#EB1484"/>
<stop offset="0.9999" stop-color="#C91CC3"/>
<stop offset="1" stop-color="#C81CC5"/>
<stop offset="1" stop-color="#C81CC5"/>
</linearGradient>
</defs>
</svg>
